<svg xmlns="http://www.w3.org/2000/svg" width="16" height="16" viewBox="0 0 16 16"><defs><style>.a{fill:#fff;}</style></defs><path class="a" d="M15.6,2H4.4A2.357,2.357,0,0,0,2,4.4v8a2.357,2.357,0,0,0,2.4,2.4h9.28l2.96,2.96a.773.773,0,0,0,1.12,0A.726.726,0,0,0,18,17.2V4.4A2.357,2.357,0,0,0,15.6,2ZM6,10.8A.8.8,0,0,1,6,9.2a.8.8,0,1,1,0,1.6ZM6,7.6a.756.756,0,0,1-.8-.8A.756.756,0,0,1,6,6a.756.756,0,0,1,.8.8A.756.756,0,0,1,6,7.6Zm8,3.2H9.2a.8.8,0,1,1,0-1.6H14a.8.8,0,1,1,0,1.6Zm0-3.2H9.2a.756.756,0,0,1-.8-.8A.756.756,0,0,1,9.2,6H14a.756.756,0,0,1,.8.8A.756.756,0,0,1,14,7.6Z" transform="translate(-2 -2)"/></svg>