<svg xmlns="http://www.w3.org/2000/svg" width="16" height="16.5" viewBox="0 0 16 16.5"><defs><style>.a{fill:#fff;}</style></defs><g transform="translate(-51.999 -57)"><path class="a" d="M17.6,14.3a.873.873,0,0,0,.4-.743v-6.6a.993.993,0,0,0-.4-.743.708.708,0,0,0-.8,0L14,7.7A2.483,2.483,0,0,0,11.6,5.3H8.64l8.8,9.08C17.439,14.3,17.519,14.3,17.6,14.3Zm.16,2.806h0l-3.84-3.962h0L6.32,5.3h0L3.36,2.248a.757.757,0,0,0-1.12,0,.816.816,0,0,0,0,1.156L4.08,5.3A2.468,2.468,0,0,0,2,7.778V12.73a2.473,2.473,0,0,0,.69,1.764,2.319,2.319,0,0,0,1.71.712h7.2a2.074,2.074,0,0,0,1.52-.578l3.52,3.632a.775.775,0,0,0,1.12,0,.836.836,0,0,0,0-1.156Z" transform="translate(50 55)"/></g></svg>