<svg xmlns="http://www.w3.org/2000/svg" width="18" height="18" viewBox="0 0 18 18"><defs><style>.a,.c{fill:#1c1f2e;}.a{opacity:0.3;}.b{fill:none;}</style></defs><g transform="translate(-325 -53)"><circle class="a" cx="9" cy="9" r="9" transform="translate(325 53)"/><g transform="translate(327.706 55.706)"><path class="b" d="M0,0H12.691V12.691H0ZM0,0H12.691V12.691H0Z" transform="translate(0)"/><path class="c" d="M14.494,8.77h-.9a2.607,2.607,0,0,1-.231,1.087l.654.652A3.431,3.431,0,0,0,14.494,8.77Zm-2.131.087c0-.029.008-.058.008-.087V5.588a1.593,1.593,0,0,0-3.185,0v.1ZM6.677,4.527,6,5.2,9.19,8.391v.382a1.589,1.589,0,0,0,1.587,1.591,1.638,1.638,0,0,0,.345-.04l.881.88a2.928,2.928,0,0,1-1.226.273A2.753,2.753,0,0,1,7.964,8.773h-.9a3.7,3.7,0,0,0,3.185,3.564v1.737h1.062V12.335a3.765,3.765,0,0,0,1.348-.48l2.222,2.22.677-.674Z" transform="translate(-4.432 -2.951)"/></g></g></svg>