<?xml version="1.0" encoding="utf-8"?>
<!-- Generator: Adobe Illustrator 22.0.0, SVG Export Plug-In . SVG Version: 6.00 Build 0)  -->
<svg version="1.1" id="Layer_1" xmlns="http://www.w3.org/2000/svg" xmlns:xlink="http://www.w3.org/1999/xlink" x="0px" y="0px"
	 viewBox="0 0 12.7 12.7" style="enable-background:new 0 0 12.7 12.7;" xml:space="preserve">
<style type="text/css">
	.st0{fill:#1C1F2E;}
</style>
<path class="st0" d="M10.1,5.8H9.2c0,0.4-0.1,0.7-0.2,1.1l0.7,0.7C9.9,7,10.1,6.4,10.1,5.8z M7.9,5.9C7.9,5.9,7.9,5.8,7.9,5.9l0-3.3
	c0-0.9-0.8-1.6-1.6-1.6c-0.8,0-1.5,0.7-1.6,1.6v0.1L7.9,5.9z M2.2,1.6L1.6,2.2l3.2,3.2v0.4c0,0.9,0.7,1.6,1.6,1.6c0,0,0,0,0,0
	c0.1,0,0.2,0,0.3,0l0.9,0.9C7.2,8.4,6.8,8.5,6.3,8.5c-1.5,0-2.8-1.2-2.8-2.7c0,0,0,0,0,0H2.6c0,1.8,1.4,3.3,3.2,3.6v1.7h1.1V9.4
	c0.5-0.1,0.9-0.2,1.3-0.5l2.2,2.2l0.7-0.7L2.2,1.6z"/>
</svg>
