<svg xmlns="http://www.w3.org/2000/svg" width="22.882" height="7.844" viewBox="0 0 22.882 7.844"><defs><style>.a{fill:#fff;}</style></defs><path class="a" d="M11.441,15.771a15.2,15.2,0,0,0-4.386.637v2.749a.889.889,0,0,1-.534.8,11.116,11.116,0,0,0-2.541,1.638.991.991,0,0,1-.667.252.969.969,0,0,1-.672-.261L.281,19.392a.843.843,0,0,1,0-1.257A16.829,16.829,0,0,1,11.441,14,16.829,16.829,0,0,1,22.6,18.134a.846.846,0,0,1,.281.629.836.836,0,0,1-.281.624l-2.36,2.191a.989.989,0,0,1-.672.261,1,1,0,0,1-.667-.252,11.117,11.117,0,0,0-2.541-1.638.889.889,0,0,1-.534-.8V16.4A15.349,15.349,0,0,0,11.441,15.771Z" transform="translate(0 -14)"/></svg>