<svg xmlns="http://www.w3.org/2000/svg" width="19.046" height="16.357" viewBox="0 0 19.046 16.357"><defs><style>.a{fill:#fff;}</style></defs><g transform="translate(-2.052 -4)"><path class="a" d="M21.045,11.238a.682.682,0,0,0-.627-.423h-.8a7.708,7.708,0,0,0-.443-1.608,8.178,8.178,0,0,0-15.239,0A.682.682,0,1,0,5.206,9.7a6.815,6.815,0,0,1,12.7,0,6.134,6.134,0,0,1,.314,1.118h-.532a.686.686,0,0,0-.484,1.165l1.363,1.363.109.068h.034a.634.634,0,0,0,.341.129.682.682,0,0,0,.484-.2L20.9,11.981A.682.682,0,0,0,21.045,11.238Zm-2.256,3.033a.682.682,0,0,0-.879.388,6.815,6.815,0,0,1-12.7,0,6.134,6.134,0,0,1-.314-1.118h.532a.686.686,0,0,0,.484-1.165L4.545,11.013l-.109-.068h0a.682.682,0,0,0-.825.089L2.248,12.4a.669.669,0,0,0,.45,1.145h.8a7.708,7.708,0,0,0,.443,1.608,8.178,8.178,0,0,0,15.239,0A.682.682,0,0,0,18.789,14.271Z"/><path class="a" d="M17.089,15.045a2.045,2.045,0,1,0-2.045,2.045A2.045,2.045,0,0,0,17.089,15.045Zm-2.726,0a.682.682,0,1,1,.682.682A.682.682,0,0,1,14.363,15.045Z" transform="translate(-3.487 -2.866)"/></g></svg>