<svg xmlns="http://www.w3.org/2000/svg" xmlns:xlink="http://www.w3.org/1999/xlink" width="15.238" height="16" viewBox="0 0 15.238 16"><defs><style>.a{fill:#fff;}.b{clip-path:url(#a);}.c{fill:none;}</style><clipPath id="a"><rect class="a" width="15.238" height="16" transform="translate(0.235 0.255)"/></clipPath></defs><g class="b" transform="translate(-0.235 -0.255)"><g transform="translate(1.174 0.899)"><path class="a" d="M15.217,12.874a2.225,2.225,0,0,0,2.229-2.224L17.453,6.2a2.236,2.236,0,0,0-4.472,0v4.448A2.232,2.232,0,0,0,15.217,12.874Zm3.95-2.224a3.856,3.856,0,0,1-3.95,3.781,3.856,3.856,0,0,1-3.95-3.781H10a5.182,5.182,0,0,0,4.472,4.982v2.431h1.491V15.632a5.182,5.182,0,0,0,4.472-4.982Z" transform="translate(-8.452 -3.965)"/><path class="c" d="M0,0H13.531V13.531H0Z" transform="translate(0 0.567)"/></g></g></svg>