<svg xmlns="http://www.w3.org/2000/svg" width="19.566" height="19.566" viewBox="0 0 19.566 19.566"><defs><style>.a{fill:none;}.b{fill:#fff;}</style></defs><path class="a" d="M0,0H19.566V19.566H0Z"/><path class="b" d="M13.234,9.906a2.453,2.453,0,1,0-2.447-2.453A2.44,2.44,0,0,0,13.234,9.906Zm-6.525,0A2.453,2.453,0,1,0,4.262,7.453,2.44,2.44,0,0,0,6.709,9.906Zm0,1.635C4.809,11.542,1,12.5,1,14.4V15.63a.819.819,0,0,0,.816.818H11.6a.819.819,0,0,0,.816-.818V14.4C12.418,12.5,8.609,11.542,6.709,11.542Zm6.525,0c-.237,0-.506.016-.791.041.016.008.024.025.033.033A3.4,3.4,0,0,1,14.049,14.4V15.63a2.463,2.463,0,0,1-.147.818h4.225a.819.819,0,0,0,.816-.818V14.4C18.943,12.5,15.134,11.542,13.234,11.542Z" transform="translate(-0.188 -0.941)"/></svg>